<svg xmlns="http://www.w3.org/2000/svg" viewBox="0 0 520 300" role="img" aria-label="A creator publishing a video with licensed music and a verified copyright shield">
<defs>
  <linearGradient id="hiA" x1="0" y1="0" x2="1" y2="1">
    <stop offset="0" stop-color="#6366f1"/><stop offset="1" stop-color="#4338ca"/>
  </linearGradient>
  <linearGradient id="hiB" x1="0" y1="0" x2="1" y2="0">
    <stop offset="0" stop-color="#2dd4bf"/><stop offset="1" stop-color="#0ea5e9"/>
  </linearGradient>
  <clipPath id="hiClip"><rect x="20" y="26" width="480" height="248" rx="18"/></clipPath>
</defs>
<g clip-path="url(#hiClip)">
  <rect x="20" y="26" width="480" height="248" rx="18" fill="#171c30"/>
  <rect x="20" y="26" width="480" height="44" fill="rgba(255,255,255,.045)"/>
  <circle cx="46" cy="48" r="5" fill="rgba(255,255,255,.28)"/>
  <circle cx="64" cy="48" r="5" fill="rgba(255,255,255,.18)"/>
  <circle cx="82" cy="48" r="5" fill="rgba(255,255,255,.12)"/>
  <rect x="372" y="40" width="108" height="16" rx="8" fill="rgba(255,255,255,.10)"/>
  <circle cx="150" cy="140" r="42" fill="url(#hiA)"/>
  <path d="M138 121l30 19-30 19z" fill="#fff"/>
  <rect x="60" y="188" width="180" height="14" rx="7" fill="rgba(45,212,191,.18)"/>
  <rect x="250" y="188" width="118" height="14" rx="7" fill="rgba(99,102,241,.24)"/>
  <g fill="url(#hiB)">
    <rect x="230" y="128" width="8" height="24" rx="4"/>
    <rect x="246" y="116" width="8" height="48" rx="4"/>
    <rect x="262" y="104" width="8" height="72" rx="4"/>
    <rect x="278" y="120" width="8" height="40" rx="4"/>
    <rect x="294" y="132" width="8" height="16" rx="4"/>
    <rect x="310" y="112" width="8" height="56" rx="4"/>
    <rect x="326" y="126" width="8" height="28" rx="4"/>
    <rect x="342" y="136" width="8" height="8" rx="4"/>
  </g>
  <rect x="60" y="224" width="400" height="6" rx="3" fill="rgba(255,255,255,.12)"/>
  <rect x="60" y="224" width="230" height="6" rx="3" fill="url(#hiA)"/>
  <circle cx="290" cy="227" r="7" fill="#fff"/>
</g>
<rect x="20" y="26" width="480" height="248" rx="18" fill="none" stroke="rgba(255,255,255,.12)"/>
<g transform="translate(414,190) scale(1.6)">
  <path d="M32 6 52 13v18c0 13-8.5 22-20 25.5C20.5 53 12 44 12 31V13z" fill="url(#hiB)"/>
  <path d="M32 6 52 13v18c0 13-8.5 22-20 25.5z" fill="#fff" opacity=".15"/>
  <circle cx="30" cy="28" r="10" fill="none" stroke="#fff" stroke-width="3.2"/>
  <path d="M30 24.5v7" stroke="#fff" stroke-width="3.2" stroke-linecap="round"/>
  <circle cx="30" cy="35.4" r="1.8" fill="#fff"/>
</g>
</svg>